# Tiled2Unity generated file. Do not modify by hand.
# Wavefront file for 'Room_1_mesh_0002.obj'

# Vertices (Count = 360)
v -80 -960 0
v -96 -960 0
v -96 -944 0
v -80 -944 0
v -96 -960 0
v -112 -960 0
v -112 -944 0
v -96 -944 0
v -112 -960 0
v -128 -960 0
v -128 -944 0
v -112 -944 0
v -128 -960 0
v -144 -960 0
v -144 -944 0
v -128 -944 0
v -144 -960 0
v -160 -960 0
v -160 -944 0
v -144 -944 0
v -160 -960 0
v -176 -960 0
v -176 -944 0
v -160 -944 0
v -176 -960 0
v -192 -960 0
v -192 -944 0
v -176 -944 0
v -192 -960 0
v -208 -960 0
v -208 -944 0
v -192 -944 0
v -208 -960 0
v -224 -960 0
v -224 -944 0
v -208 -944 0
v -224 -960 0
v -240 -960 0
v -240 -944 0
v -224 -944 0
v -240 -960 0
v -256 -960 0
v -256 -944 0
v -240 -944 0
v -256 -960 0
v -272 -960 0
v -272 -944 0
v -256 -944 0
v -272 -960 0
v -288 -960 0
v -288 -944 0
v -272 -944 0
v -288 -960 0
v -304 -960 0
v -304 -944 0
v -288 -944 0
v -304 -960 0
v -320 -960 0
v -320 -944 0
v -304 -944 0
v -320 -960 0
v -336 -960 0
v -336 -944 0
v -320 -944 0
v -336 -960 0
v -352 -960 0
v -352 -944 0
v -336 -944 0
v -352 -960 0
v -368 -960 0
v -368 -944 0
v -352 -944 0
v -368 -960 0
v -384 -960 0
v -384 -944 0
v -368 -944 0
v -384 -960 0
v -400 -960 0
v -400 -944 0
v -384 -944 0
v -400 -960 0
v -416 -960 0
v -416 -944 0
v -400 -944 0
v -416 -960 0
v -432 -960 0
v -432 -944 0
v -416 -944 0
v -432 -960 0
v -448 -960 0
v -448 -944 0
v -432 -944 0
v -448 -960 0
v -464 -960 0
v -464 -944 0
v -448 -944 0
v -464 -960 0
v -480 -960 0
v -480 -944 0
v -464 -944 0
v -480 -960 0
v -496 -960 0
v -496 -944 0
v -480 -944 0
v -496 -960 0
v -512 -960 0
v -512 -944 0
v -496 -944 0
v -80 -976 0
v -96 -976 0
v -96 -960 0
v -80 -960 0
v -96 -976 0
v -112 -976 0
v -112 -960 0
v -96 -960 0
v -480 -976 0
v -496 -976 0
v -496 -960 0
v -480 -960 0
v -496 -976 0
v -512 -976 0
v -512 -960 0
v -496 -960 0
v -80 -992 0
v -96 -992 0
v -96 -976 0
v -80 -976 0
v -496 -992 0
v -512 -992 0
v -512 -976 0
v -496 -976 0
v -80 -1008 0
v -96 -1008 0
v -96 -992 0
v -80 -992 0
v -496 -1008 0
v -512 -1008 0
v -512 -992 0
v -496 -992 0
v -80 -1024 0
v -96 -1024 0
v -96 -1008 0
v -80 -1008 0
v -496 -1024 0
v -512 -1024 0
v -512 -1008 0
v -496 -1008 0
v -80 -1040 0
v -96 -1040 0
v -96 -1024 0
v -80 -1024 0
v -496 -1040 0
v -512 -1040 0
v -512 -1024 0
v -496 -1024 0
v -80 -1056 0
v -96 -1056 0
v -96 -1040 0
v -80 -1040 0
v -496 -1056 0
v -512 -1056 0
v -512 -1040 0
v -496 -1040 0
v -80 -1072 0
v -96 -1072 0
v -96 -1056 0
v -80 -1056 0
v -496 -1072 0
v -512 -1072 0
v -512 -1056 0
v -496 -1056 0
v -80 -1088 0
v -96 -1088 0
v -96 -1072 0
v -80 -1072 0
v -496 -1088 0
v -512 -1088 0
v -512 -1072 0
v -496 -1072 0
v -80 -1104 0
v -96 -1104 0
v -96 -1088 0
v -80 -1088 0
v -496 -1104 0
v -512 -1104 0
v -512 -1088 0
v -496 -1088 0
v -80 -1120 0
v -96 -1120 0
v -96 -1104 0
v -80 -1104 0
v -496 -1120 0
v -512 -1120 0
v -512 -1104 0
v -496 -1104 0
v -80 -1136 0
v -96 -1136 0
v -96 -1120 0
v -80 -1120 0
v -496 -1136 0
v -512 -1136 0
v -512 -1120 0
v -496 -1120 0
v -80 -1152 0
v -96 -1152 0
v -96 -1136 0
v -80 -1136 0
v -496 -1152 0
v -512 -1152 0
v -512 -1136 0
v -496 -1136 0
v -80 -1168 0
v -96 -1168 0
v -96 -1152 0
v -80 -1152 0
v -496 -1168 0
v -512 -1168 0
v -512 -1152 0
v -496 -1152 0
v -80 -1184 0
v -96 -1184 0
v -96 -1168 0
v -80 -1168 0
v -496 -1184 0
v -512 -1184 0
v -512 -1168 0
v -496 -1168 0
v -80 -1200 0
v -96 -1200 0
v -96 -1184 0
v -80 -1184 0
v -496 -1200 0
v -512 -1200 0
v -512 -1184 0
v -496 -1184 0
v -80 -1216 0
v -96 -1216 0
v -96 -1200 0
v -80 -1200 0
v -96 -1216 0
v -112 -1216 0
v -112 -1200 0
v -96 -1200 0
v -480 -1216 0
v -496 -1216 0
v -496 -1200 0
v -480 -1200 0
v -496 -1216 0
v -512 -1216 0
v -512 -1200 0
v -496 -1200 0
v -80 -1232 0
v -96 -1232 0
v -96 -1216 0
v -80 -1216 0
v -96 -1232 0
v -112 -1232 0
v -112 -1216 0
v -96 -1216 0
v -112 -1232 0
v -128 -1232 0
v -128 -1216 0
v -112 -1216 0
v -128 -1232 0
v -144 -1232 0
v -144 -1216 0
v -128 -1216 0
v -144 -1232 0
v -160 -1232 0
v -160 -1216 0
v -144 -1216 0
v -160 -1232 0
v -176 -1232 0
v -176 -1216 0
v -160 -1216 0
v -176 -1232 0
v -192 -1232 0
v -192 -1216 0
v -176 -1216 0
v -192 -1232 0
v -208 -1232 0
v -208 -1216 0
v -192 -1216 0
v -208 -1232 0
v -224 -1232 0
v -224 -1216 0
v -208 -1216 0
v -224 -1232 0
v -240 -1232 0
v -240 -1216 0
v -224 -1216 0
v -240 -1232 0
v -256 -1232 0
v -256 -1216 0
v -240 -1216 0
v -256 -1232 0
v -272 -1232 0
v -272 -1216 0
v -256 -1216 0
v -272 -1232 0
v -288 -1232 0
v -288 -1216 0
v -272 -1216 0
v -288 -1232 0
v -304 -1232 0
v -304 -1216 0
v -288 -1216 0
v -304 -1232 0
v -320 -1232 0
v -320 -1216 0
v -304 -1216 0
v -320 -1232 0
v -336 -1232 0
v -336 -1216 0
v -320 -1216 0
v -336 -1232 0
v -352 -1232 0
v -352 -1216 0
v -336 -1216 0
v -352 -1232 0
v -368 -1232 0
v -368 -1216 0
v -352 -1216 0
v -368 -1232 0
v -384 -1232 0
v -384 -1216 0
v -368 -1216 0
v -384 -1232 0
v -400 -1232 0
v -400 -1216 0
v -384 -1216 0
v -400 -1232 0
v -416 -1232 0
v -416 -1216 0
v -400 -1216 0
v -416 -1232 0
v -432 -1232 0
v -432 -1216 0
v -416 -1216 0
v -432 -1232 0
v -448 -1232 0
v -448 -1216 0
v -432 -1216 0
v -448 -1232 0
v -464 -1232 0
v -464 -1216 0
v -448 -1216 0
v -464 -1232 0
v -480 -1232 0
v -480 -1216 0
v -464 -1216 0
v -480 -1232 0
v -496 -1232 0
v -496 -1216 0
v -480 -1216 0
v -496 -1232 0
v -512 -1232 0
v -512 -1216 0
v -496 -1216 0

# Texture cooridinates (Count = 40)
vt 0 0.9
vt 0.1 0.9
vt 0.1 1
vt 0 1
vt 0.2 0.9
vt 0.2 1
vt 0.3 0.9
vt 0.4 0.9
vt 0.4 1
vt 0.3 1
vt 0.5 0.9
vt 0.5 1
vt 0.6 0.9
vt 0.6 1
vt 0 0.8
vt 0.1 0.8
vt 0.2 0.8
vt 0.4 0.8
vt 0.5 0.8
vt 0.6 0.8
vt 0.5 0.7
vt 0.6 0.7
vt 0.5 0.6
vt 0.6 0.6
vt 0 0.7
vt 0.1 0.7
vt 0 0.6
vt 0.1 0.6
vt 0.2 0.6
vt 0.2 0.7
vt 0.4 0.6
vt 0.4 0.7
vt 0 0.5
vt 0.1 0.5
vt 0.2 0.5
vt 0.3 0.5
vt 0.4 0.5
vt 0.3 0.6
vt 0.5 0.5
vt 0.6 0.5

# Normal
vn 0 0 -1

# Mesh description
g Room_1_mesh_0002

# Faces
f 1/1/1 2/2/1 3/3/1 4/4/1
f 5/2/1 6/5/1 7/6/1 8/3/1
f 9/7/1 10/8/1 11/9/1 12/10/1
f 13/7/1 14/8/1 15/9/1 16/10/1
f 17/5/1 18/7/1 19/10/1 20/6/1
f 21/5/1 22/7/1 23/10/1 24/6/1
f 25/5/1 26/7/1 27/10/1 28/6/1
f 29/7/1 30/8/1 31/9/1 32/10/1
f 33/7/1 34/8/1 35/9/1 36/10/1
f 37/7/1 38/8/1 39/9/1 40/10/1
f 41/7/1 42/8/1 43/9/1 44/10/1
f 45/7/1 46/8/1 47/9/1 48/10/1
f 49/7/1 50/8/1 51/9/1 52/10/1
f 53/7/1 54/8/1 55/9/1 56/10/1
f 57/7/1 58/8/1 59/9/1 60/10/1
f 61/7/1 62/8/1 63/9/1 64/10/1
f 65/7/1 66/8/1 67/9/1 68/10/1
f 69/7/1 70/8/1 71/9/1 72/10/1
f 73/7/1 74/8/1 75/9/1 76/10/1
f 77/7/1 78/8/1 79/9/1 80/10/1
f 81/5/1 82/7/1 83/10/1 84/6/1
f 85/5/1 86/7/1 87/10/1 88/6/1
f 89/5/1 90/7/1 91/10/1 92/6/1
f 93/5/1 94/7/1 95/10/1 96/6/1
f 97/5/1 98/7/1 99/10/1 100/6/1
f 101/8/1 102/11/1 103/12/1 104/9/1
f 105/11/1 106/13/1 107/14/1 108/12/1
f 109/15/1 110/16/1 111/2/1 112/1/1
f 113/16/1 114/17/1 115/5/1 116/2/1
f 117/18/1 118/19/1 119/11/1 120/8/1
f 121/19/1 122/20/1 123/13/1 124/11/1
f 125/15/1 126/16/1 127/2/1 128/1/1
f 129/19/1 130/20/1 131/13/1 132/11/1
f 133/15/1 134/16/1 135/2/1 136/1/1
f 137/21/1 138/22/1 139/20/1 140/19/1
f 141/15/1 142/16/1 143/2/1 144/1/1
f 145/23/1 146/24/1 147/22/1 148/21/1
f 149/15/1 150/16/1 151/2/1 152/1/1
f 153/23/1 154/24/1 155/22/1 156/21/1
f 157/15/1 158/16/1 159/2/1 160/1/1
f 161/23/1 162/24/1 163/22/1 164/21/1
f 165/15/1 166/16/1 167/2/1 168/1/1
f 169/23/1 170/24/1 171/22/1 172/21/1
f 173/15/1 174/16/1 175/2/1 176/1/1
f 177/23/1 178/24/1 179/22/1 180/21/1
f 181/25/1 182/26/1 183/16/1 184/15/1
f 185/23/1 186/24/1 187/22/1 188/21/1
f 189/25/1 190/26/1 191/16/1 192/15/1
f 193/19/1 194/20/1 195/13/1 196/11/1
f 197/25/1 198/26/1 199/16/1 200/15/1
f 201/21/1 202/22/1 203/20/1 204/19/1
f 205/15/1 206/16/1 207/2/1 208/1/1
f 209/23/1 210/24/1 211/22/1 212/21/1
f 213/15/1 214/16/1 215/2/1 216/1/1
f 217/23/1 218/24/1 219/22/1 220/21/1
f 221/15/1 222/16/1 223/2/1 224/1/1
f 225/23/1 226/24/1 227/22/1 228/21/1
f 229/15/1 230/16/1 231/2/1 232/1/1
f 233/23/1 234/24/1 235/22/1 236/21/1
f 237/27/1 238/28/1 239/26/1 240/25/1
f 241/28/1 242/29/1 243/30/1 244/26/1
f 245/31/1 246/23/1 247/21/1 248/32/1
f 249/23/1 250/24/1 251/22/1 252/21/1
f 253/33/1 254/34/1 255/28/1 256/27/1
f 257/34/1 258/35/1 259/29/1 260/28/1
f 261/36/1 262/37/1 263/31/1 264/38/1
f 265/36/1 266/37/1 267/31/1 268/38/1
f 269/36/1 270/37/1 271/31/1 272/38/1
f 273/36/1 274/37/1 275/31/1 276/38/1
f 277/34/1 278/35/1 279/29/1 280/28/1
f 281/34/1 282/35/1 283/29/1 284/28/1
f 285/34/1 286/35/1 287/29/1 288/28/1
f 289/34/1 290/35/1 291/29/1 292/28/1
f 293/34/1 294/35/1 295/29/1 296/28/1
f 297/34/1 298/35/1 299/29/1 300/28/1
f 301/34/1 302/35/1 303/29/1 304/28/1
f 305/34/1 306/35/1 307/29/1 308/28/1
f 309/35/1 310/36/1 311/38/1 312/29/1
f 313/35/1 314/36/1 315/38/1 316/29/1
f 317/35/1 318/36/1 319/38/1 320/29/1
f 321/34/1 322/35/1 323/29/1 324/28/1
f 325/35/1 326/36/1 327/38/1 328/29/1
f 329/36/1 330/37/1 331/31/1 332/38/1
f 333/37/1 334/39/1 335/23/1 336/31/1
f 337/34/1 338/35/1 339/29/1 340/28/1
f 341/35/1 342/36/1 343/38/1 344/29/1
f 345/36/1 346/37/1 347/31/1 348/38/1
f 349/37/1 350/39/1 351/23/1 352/31/1
f 353/37/1 354/39/1 355/23/1 356/31/1
f 357/39/1 358/40/1 359/24/1 360/23/1

